<svg width="827" height="361" viewBox="0 0 827 361" fill="none" xmlns="http://www.w3.org/2000/svg">
<g clip-path="url(#clip0_4_263)">
<rect width="827" height="361" fill="url(#paint0_linear_4_263)"/>
<ellipse cx="32.5" cy="330.5" rx="12.5" ry="8.5" fill="#641825"/>
<ellipse cx="270.5" cy="66.5" rx="12.5" ry="8.5" fill="#641825"/>
<ellipse cx="187.5" cy="241.5" rx="12.5" ry="8.5" fill="#641825"/>
<ellipse cx="784.5" cy="288.5" rx="12.5" ry="8.5" fill="#641825"/>
<ellipse cx="426.5" cy="118.5" rx="12.5" ry="8.5" fill="#641825"/>
<ellipse cx="540.382" cy="91.4272" rx="12.5" ry="8.5" transform="rotate(55.946 540.382 91.4272)" fill="#641825"/>
<ellipse cx="13.5" cy="139.5" rx="12.5" ry="8.5" fill="#641825"/>
<ellipse cx="610.5" cy="186.5" rx="12.5" ry="8.5" fill="#641825"/>
<ellipse cx="296.5" cy="269.5" rx="12.5" ry="8.5" fill="#641825"/>
<ellipse cx="168.5" cy="50.5" rx="12.5" ry="8.5" fill="#641825"/>
<ellipse cx="765.5" cy="97.5" rx="12.5" ry="8.5" fill="#641825"/>
<ellipse cx="451.5" cy="180.5" rx="12.5" ry="8.5" fill="#641825"/>
<ellipse cx="12.5" cy="8.5" rx="12.5" ry="8.5" transform="matrix(0.934654 0.355558 0.355558 -0.934654 607.368 70.6538)" fill="#641825"/>
<ellipse cx="87.5" cy="259.5" rx="12.5" ry="8.5" fill="#641825"/>
<ellipse cx="684.5" cy="306.5" rx="12.5" ry="8.5" fill="#641825"/>
<ellipse cx="325.5" cy="-4.5" rx="12.5" ry="8.5" fill="#641825"/>
<ellipse cx="242.5" cy="170.5" rx="12.5" ry="8.5" fill="#641825"/>
<ellipse cx="525.5" cy="300.5" rx="12.5" ry="8.5" fill="#641825"/>
<ellipse cx="68.5" cy="68.5" rx="12.5" ry="8.5" fill="#641825"/>
<ellipse cx="665.5" cy="115.5" rx="12.5" ry="8.5" fill="#641825"/>
<ellipse cx="351.5" cy="198.5" rx="12.5" ry="8.5" fill="#641825"/>
<ellipse cx="183.5" cy="339.5" rx="12.5" ry="8.5" fill="#641825"/>
<ellipse cx="421.5" cy="75.5" rx="12.5" ry="8.5" fill="#641825"/>
<ellipse cx="796.5" cy="22.5" rx="12.5" ry="8.5" fill="#641825"/>
<ellipse cx="43.5" cy="199.5" rx="12.5" ry="8.5" fill="#641825"/>
<ellipse cx="640.5" cy="246.5" rx="12.5" ry="8.5" fill="#641825"/>
<ellipse cx="326.5" cy="329.5" rx="12.5" ry="8.5" fill="#641825"/>
<ellipse cx="544.5" cy="3.5" rx="12.5" ry="8.5" fill="#641825"/>
<ellipse cx="198.5" cy="110.5" rx="12.5" ry="8.5" fill="#641825"/>
<ellipse cx="795.5" cy="157.5" rx="12.5" ry="8.5" fill="#641825"/>
<ellipse cx="481.5" cy="240.5" rx="12.5" ry="8.5" fill="#641825"/>
<ellipse cx="72.5" cy="294.5" rx="12.5" ry="8.5" fill="#641825"/>
<ellipse cx="669.5" cy="341.5" rx="12.5" ry="8.5" fill="#641825"/>
<ellipse cx="310.5" cy="30.5" rx="12.5" ry="8.5" fill="#641825"/>
<ellipse cx="227.5" cy="205.5" rx="12.5" ry="8.5" fill="#641825"/>
<ellipse cx="824.5" cy="252.5" rx="12.5" ry="8.5" fill="#641825"/>
<ellipse cx="510.5" cy="335.5" rx="12.5" ry="8.5" fill="#641825"/>
<ellipse cx="728.5" cy="9.5" rx="12.5" ry="8.5" fill="#641825"/>
<ellipse cx="53.5" cy="103.5" rx="12.5" ry="8.5" fill="#641825"/>
<ellipse cx="650.5" cy="150.5" rx="12.5" ry="8.5" fill="#641825"/>
<ellipse cx="336.5" cy="233.5" rx="12.5" ry="8.5" fill="#641825"/>
<ellipse cx="208.5" cy="14.5" rx="12.5" ry="8.5" fill="#641825"/>
<ellipse cx="805.5" cy="61.5" rx="12.5" ry="8.5" fill="#641825"/>
<ellipse cx="491.5" cy="144.5" rx="12.5" ry="8.5" fill="#641825"/>
<ellipse cx="555.239" cy="159.84" rx="12.5" ry="8.5" transform="rotate(55.946 555.239 159.84)" fill="#641825"/>
<ellipse cx="28.5" cy="234.5" rx="12.5" ry="8.5" fill="#641825"/>
<ellipse cx="625.5" cy="281.5" rx="12.5" ry="8.5" fill="#641825"/>
<ellipse cx="321.5" cy="116.5" rx="12.5" ry="8.5" fill="#641825"/>
<ellipse cx="183.5" cy="145.5" rx="12.5" ry="8.5" fill="#641825"/>
<ellipse cx="780.5" cy="192.5" rx="12.5" ry="8.5" fill="#641825"/>
<ellipse cx="466.5" cy="275.5" rx="12.5" ry="8.5" fill="#641825"/>
<ellipse cx="127.5" cy="223.5" rx="12.5" ry="8.5" fill="#641825"/>
<ellipse cx="724.5" cy="270.5" rx="12.5" ry="8.5" fill="#641825"/>
<ellipse cx="410.5" cy="353.5" rx="12.5" ry="8.5" fill="#641825"/>
<ellipse cx="628.5" cy="27.5" rx="12.5" ry="8.5" fill="#641825"/>
<ellipse cx="282.5" cy="134.5" rx="12.5" ry="8.5" fill="#641825"/>
<ellipse cx="565.5" cy="264.5" rx="12.5" ry="8.5" fill="#641825"/>
<ellipse cx="108.5" cy="32.5" rx="12.5" ry="8.5" fill="#641825"/>
<ellipse cx="705.5" cy="79.5" rx="12.5" ry="8.5" fill="#641825"/>
<ellipse cx="391.5" cy="162.5" rx="12.5" ry="8.5" fill="#641825"/>
<ellipse cx="12.5" cy="8.5" rx="12.5" ry="8.5" transform="matrix(0.934654 0.355558 0.355558 -0.934654 544.889 66.144)" fill="#641825"/>
<ellipse cx="223.5" cy="303.5" rx="12.5" ry="8.5" fill="#641825"/>
<ellipse cx="820.5" cy="350.5" rx="12.5" ry="8.5" fill="#641825"/>
<ellipse cx="461.5" cy="39.5" rx="12.5" ry="8.5" fill="#641825"/>
<ellipse cx="22.5" cy="302.5" rx="12.5" ry="8.5" fill="#641825"/>
<ellipse cx="619.5" cy="349.5" rx="12.5" ry="8.5" fill="#641825"/>
<ellipse cx="260.5" cy="38.5" rx="12.5" ry="8.5" fill="#641825"/>
<ellipse cx="177.5" cy="213.5" rx="12.5" ry="8.5" fill="#641825"/>
<ellipse cx="774.5" cy="260.5" rx="12.5" ry="8.5" fill="#641825"/>
<ellipse cx="460.5" cy="343.5" rx="12.5" ry="8.5" fill="#641825"/>
<ellipse cx="678.5" cy="17.5" rx="12.5" ry="8.5" fill="#641825"/>
<ellipse cx="3.5" cy="111.5" rx="12.5" ry="8.5" fill="#641825"/>
<ellipse cx="600.5" cy="158.5" rx="12.5" ry="8.5" fill="#641825"/>
<ellipse cx="286.5" cy="241.5" rx="12.5" ry="8.5" fill="#641825"/>
<ellipse cx="158.5" cy="22.5" rx="12.5" ry="8.5" fill="#641825"/>
<ellipse cx="755.5" cy="69.5" rx="12.5" ry="8.5" fill="#641825"/>
<ellipse cx="441.5" cy="152.5" rx="12.5" ry="8.5" fill="#641825"/>
<ellipse cx="520.613" cy="122.894" rx="12.5" ry="8.5" transform="rotate(55.946 520.613 122.894)" fill="#641825"/>
<ellipse cx="115.5" cy="313.5" rx="12.5" ry="8.5" fill="#641825"/>
<ellipse cx="712.5" cy="360.5" rx="12.5" ry="8.5" fill="#641825"/>
<ellipse cx="353.5" cy="49.5" rx="12.5" ry="8.5" fill="#641825"/>
<ellipse cx="102.5" cy="120.5" rx="12.5" ry="8.5" fill="#641825"/>
<ellipse cx="699.5" cy="167.5" rx="12.5" ry="8.5" fill="#641825"/>
<ellipse cx="385.5" cy="250.5" rx="12.5" ry="8.5" fill="#641825"/>
<ellipse cx="133.5" cy="153.5" rx="12.5" ry="8.5" fill="#641825"/>
<ellipse cx="730.5" cy="200.5" rx="12.5" ry="8.5" fill="#641825"/>
<ellipse cx="416.5" cy="283.5" rx="12.5" ry="8.5" fill="#641825"/>
<ellipse cx="77.5" cy="231.5" rx="12.5" ry="8.5" fill="#641825"/>
<ellipse cx="674.5" cy="278.5" rx="12.5" ry="8.5" fill="#641825"/>
<ellipse cx="360.5" cy="361.5" rx="12.5" ry="8.5" fill="#641825"/>
<ellipse cx="578.5" cy="35.5" rx="12.5" ry="8.5" fill="#641825"/>
<ellipse cx="232.5" cy="142.5" rx="12.5" ry="8.5" fill="#641825"/>
<ellipse cx="829.5" cy="189.5" rx="12.5" ry="8.5" fill="#641825"/>
<ellipse cx="515.5" cy="272.5" rx="12.5" ry="8.5" fill="#641825"/>
<ellipse cx="58.5" cy="40.5" rx="12.5" ry="8.5" fill="#641825"/>
<ellipse cx="655.5" cy="87.5" rx="12.5" ry="8.5" fill="#641825"/>
<ellipse cx="341.5" cy="170.5" rx="12.5" ry="8.5" fill="#641825"/>
<ellipse cx="12.5" cy="8.5" rx="12.5" ry="8.5" transform="matrix(0.934654 0.355558 0.355558 -0.934654 501 40.8892)" fill="#641825"/>
<ellipse cx="173.5" cy="311.5" rx="12.5" ry="8.5" fill="#641825"/>
<ellipse cx="770.5" cy="358.5" rx="12.5" ry="8.5" fill="#641825"/>
<ellipse cx="411.5" cy="47.5" rx="12.5" ry="8.5" fill="#641825"/>
<ellipse cx="786.5" cy="-5.5" rx="12.5" ry="8.5" fill="#641825"/>
<ellipse cx="33.5" cy="171.5" rx="12.5" ry="8.5" fill="#641825"/>
<ellipse cx="630.5" cy="218.5" rx="12.5" ry="8.5" fill="#641825"/>
<ellipse cx="316.5" cy="301.5" rx="12.5" ry="8.5" fill="#641825"/>
<ellipse cx="188.5" cy="82.5" rx="12.5" ry="8.5" fill="#641825"/>
<ellipse cx="785.5" cy="129.5" rx="12.5" ry="8.5" fill="#641825"/>
<ellipse cx="471.5" cy="212.5" rx="12.5" ry="8.5" fill="#641825"/>
<ellipse cx="84.5" cy="344" rx="19.5" ry="13" fill="#641825"/>
<ellipse cx="553.5" cy="362" rx="19.5" ry="13" fill="#641825"/>
<ellipse cx="322.5" cy="80" rx="19.5" ry="13" fill="#641825"/>
<ellipse cx="239.5" cy="255" rx="19.5" ry="13" fill="#641825"/>
<ellipse cx="836.5" cy="302" rx="19.5" ry="13" fill="#641825"/>
<ellipse cx="477.5" cy="-9" rx="19.5" ry="13" fill="#641825"/>
<ellipse cx="733.5" cy="48" rx="19.5" ry="13" fill="#641825"/>
<ellipse cx="65.5" cy="153" rx="19.5" ry="13" fill="#641825"/>
<ellipse cx="662.5" cy="200" rx="19.5" ry="13" fill="#641825"/>
<ellipse cx="348.5" cy="283" rx="19.5" ry="13" fill="#641825"/>
<ellipse cx="220.5" cy="64" rx="19.5" ry="13" fill="#641825"/>
<ellipse cx="817.5" cy="111" rx="19.5" ry="13" fill="#641825"/>
<ellipse cx="503.5" cy="194" rx="19.5" ry="13" fill="#641825"/>
<ellipse cx="579.5" cy="108" rx="19.5" ry="13" transform="rotate(-40.4346 579.5 108)" fill="#641825"/>
<ellipse cx="139.5" cy="273" rx="19.5" ry="13" fill="#641825"/>
<ellipse cx="736.5" cy="320" rx="19.5" ry="13" fill="#641825"/>
<ellipse cx="377.5" cy="9" rx="19.5" ry="13" fill="#641825"/>
<ellipse cx="294.5" cy="184" rx="19.5" ry="13" fill="#641825"/>
<ellipse cx="577.5" cy="314" rx="19.5" ry="13" fill="#641825"/>
<ellipse cx="120.5" cy="82" rx="19.5" ry="13" fill="#641825"/>
<ellipse cx="717.5" cy="129" rx="19.5" ry="13" fill="#641825"/>
<ellipse cx="403.5" cy="212" rx="19.5" ry="13" fill="#641825"/>
<ellipse cx="235.5" cy="353" rx="19.5" ry="13" fill="#641825"/>
<ellipse cx="473.5" cy="89" rx="19.5" ry="13" fill="#641825"/>
<ellipse cx="50" cy="267.5" rx="15" ry="10.5" fill="#641825"/>
<ellipse cx="647" cy="314.5" rx="15" ry="10.5" fill="#641825"/>
<ellipse cx="288" cy="3.5" rx="15" ry="10.5" fill="#641825"/>
<ellipse cx="205" cy="178.5" rx="15" ry="10.5" fill="#641825"/>
<ellipse cx="802" cy="225.5" rx="15" ry="10.5" fill="#641825"/>
<ellipse cx="488" cy="308.5" rx="15" ry="10.5" fill="#641825"/>
<ellipse cx="31" cy="76.5" rx="15" ry="10.5" fill="#641825"/>
<ellipse cx="628" cy="123.5" rx="15" ry="10.5" fill="#641825"/>
<ellipse cx="146" cy="347.5" rx="15" ry="10.5" fill="#641825"/>
<ellipse cx="384" cy="83.5" rx="15" ry="10.5" fill="#641825"/>
<ellipse cx="6" cy="207.5" rx="15" ry="10.5" fill="#641825"/>
<ellipse cx="603" cy="254.5" rx="15" ry="10.5" fill="#641825"/>
<ellipse cx="289" cy="337.5" rx="15" ry="10.5" fill="#641825"/>
<ellipse cx="161" cy="118.5" rx="15" ry="10.5" fill="#641825"/>
<ellipse cx="758" cy="165.5" rx="15" ry="10.5" fill="#641825"/>
<ellipse cx="444" cy="248.5" rx="15" ry="10.5" fill="#641825"/>
<ellipse cx="105" cy="196.5" rx="15" ry="10.5" fill="#641825"/>
<ellipse cx="702" cy="243.5" rx="15" ry="10.5" fill="#641825"/>
<ellipse cx="388" cy="326.5" rx="15" ry="10.5" fill="#641825"/>
<ellipse cx="606" cy="0.5" rx="15" ry="10.5" fill="#641825"/>
<ellipse cx="260" cy="107.5" rx="15" ry="10.5" fill="#641825"/>
<ellipse cx="543" cy="237.5" rx="15" ry="10.5" fill="#641825"/>
<ellipse cx="86" cy="5.5" rx="15" ry="10.5" fill="#641825"/>
<ellipse cx="683" cy="52.5" rx="15" ry="10.5" fill="#641825"/>
<ellipse cx="369" cy="135.5" rx="15" ry="10.5" fill="#641825"/>
<ellipse cx="494.099" cy="53.3074" rx="15" ry="10.5" transform="rotate(55.946 494.099 53.3074)" fill="#641825"/>
<ellipse cx="201" cy="276.5" rx="15" ry="10.5" fill="#641825"/>
<ellipse cx="798" cy="323.5" rx="15" ry="10.5" fill="#641825"/>
<ellipse cx="439" cy="12.5" rx="15" ry="10.5" fill="#641825"/>
</g>
<defs>
<linearGradient id="paint0_linear_4_263" x1="413.5" y1="0" x2="413.5" y2="361" gradientUnits="userSpaceOnUse">
<stop stop-color="#FBE45A"/>
<stop offset="1" stop-color="#FFB73F"/>
</linearGradient>
<clipPath id="clip0_4_263">
<rect width="827" height="361" fill="white"/>
</clipPath>
</defs>
</svg>
