<svg xmlns="http://www.w3.org/2000/svg" width="143" height="33" fill="none"><mask id="b" width="141" height="27" x="1" y="5" fill="#000" maskUnits="userSpaceOnUse"><path fill="#fff" d="M1 5h141v27H1z"/><path d="M12.128 14.392h4.224q1.296.048 1.584.672.24.456.24 1.344v5.28q0 .768-.672 1.464-2.016 2.088-6.048 2.088-3.576 0-6.216-2.688Q2.6 19.84 2.6 16.024t2.688-6.36q2.688-2.568 6.336-2.568 2.832 0 5.352 1.872.648.48.648 1.08 0 .576-.552 1.344-.936 1.272-1.704 1.272-.456 0-1.464-.648-1.008-.672-2.4-.672-1.824 0-3.24 1.296Q6.848 13.912 6.848 16q0 2.064 1.44 3.528 1.44 1.44 3.264 1.44 1.32 0 2.376-.432V17.92h-1.896q-.744 0-1.056-.192a.9.9 0 0 1-.408-.552q-.096-.384-.096-1.008 0-.648.096-1.032.12-.384.408-.528.432-.216 1.152-.216m7.605 4.296q0-2.88 2.016-4.752t4.608-1.872 4.584 1.872q1.992 1.848 1.992 4.728 0 1.992-1.032 3.552-1.032 1.536-2.52 2.28-1.464.72-3.048.72c-1.584 0-2.08-.256-3.072-.768q-1.488-.792-2.52-2.304-1.008-1.536-1.008-3.456m5.016 1.728q.768.576 1.56.576c.792 0 1.056-.2 1.584-.6q.792-.6.792-1.776c0-1.176-.248-1.368-.744-1.752q-.744-.576-1.608-.576t-1.608.6-.744 1.776q0 1.152.768 1.752m9.374-1.728q0-2.88 2.016-4.752t4.608-1.872 4.584 1.872q1.992 1.848 1.992 4.728 0 1.992-1.032 3.552-1.032 1.536-2.52 2.28-1.464.72-3.048.72c-1.584 0-2.08-.256-3.072-.768q-1.488-.792-2.52-2.304-1.008-1.536-1.008-3.456m5.016 1.728q.768.576 1.56.576c.792 0 1.056-.2 1.584-.6q.792-.6.792-1.776c0-1.176-.248-1.368-.744-1.752q-.744-.576-1.608-.576t-1.608.6-.744 1.776q0 1.152.768 1.752m17.751 3q-.912 1.2-2.904 1.2t-3.744-1.824q-1.728-1.848-1.728-4.296t1.752-4.296 3.84-1.848q.816 0 1.488.312.672.288.912.552.264.24.408.456.072-.672.48-1.008.432-.36 1.368-.36t1.368.144.6.504q.192.336.216.6.048.264.048.816v9.936q0 2.76-1.92 4.44-1.92 1.704-4.32 1.704a7.26 7.26 0 0 1-3.48-.888q-1.656-.888-1.656-1.608 0-.936.72-1.656.456-.504.696-.696a1 1 0 0 1 .6-.192q.336 0 .696.288 1.152.888 2.496.888.912 0 1.488-.72t.576-1.728zm-4.272-4.896q0 .768.6 1.392.624.624 1.488.624.888 0 1.464-.624.576-.648.576-1.392 0-.768-.552-1.416-.552-.672-1.488-.672c-.936 0-1.128.216-1.512.648q-.576.648-.576 1.44M62.913 8.512q0-.552.024-.816.048-.288.216-.648.336-.648 1.872-.648 1.464 0 1.824.648.192.36.216.648.048.288.048.84v11.112q0 .864.144 1.104.144.216.624.216.504 0 .672.048.168.024.408.192.48.312.48 1.704 0 1.512-.48 1.848-.624.432-2.976.144-1.848-.24-2.4-1.224-.672-1.176-.672-3.744zm19.81 8.664q0 1.464-.745 2.184-.72.696-1.608.696h-5.688q0 .672.792 1.128t1.584.456q1.392 0 2.184-.288l.264-.096q.576-.264.96-.264.768 0 1.32 1.08.312.648.312 1.104 0 2.136-5.112 2.136-1.776 0-3.168-.6-1.368-.624-2.136-1.632-1.512-1.944-1.512-4.344 0-3.024 1.944-4.824 1.968-1.824 4.896-1.824 3.336 0 4.896 2.352.816 1.248.816 2.736Zm-5.065.696q.912 0 .912-.768a1.07 1.07 0 0 0-.432-.888q-.408-.336-1.2-.336-.768 0-1.536.648-.768.624-.768 1.344zm25.684-6.912q.624 1.272.624 2.832t-.624 2.832q-.624 1.248-1.608 1.992-1.992 1.536-4.128 1.536h-3v2.712q0 .552-.048.84-.024.264-.216.624-.336.648-1.872.648-1.68 0-1.968-.888-.144-.408-.144-1.248V9.52q0-.552.024-.816.048-.288.24-.648.336-.648 1.872-.648h5.136q2.112 0 4.104 1.536.984.744 1.608 2.016m-5.712 4.944q.72 0 1.416-.528t.696-1.584-.696-1.584q-.696-.552-1.44-.552h-3v4.248zm7.893-7.392q0-.552.024-.816.048-.288.216-.648.336-.648 1.872-.648 1.464 0 1.824.648.192.36.216.648.048.288.048.84v11.112q0 .864.144 1.104.144.216.624.216.504 0 .672.048.168.024.408.192.48.312.48 1.704 0 1.512-.48 1.848-.624.432-2.976.144-1.848-.24-2.4-1.224-.672-1.176-.672-3.744zm16.059 5.184q.144-1.344 1.896-1.344.936 0 1.392.144t.624.504q.192.36.216.648.048.264.048.816v8.4q0 .552-.048.84-.024.264-.192.624-.336.624-1.656.624-1.296 0-1.752-.312-.432-.336-.504-.96-.888 1.272-2.976 1.272-2.064 0-3.84-1.896t-1.776-4.392q0-2.52 1.776-4.392 1.8-1.896 3.936-1.896.816 0 1.488.288t.936.552q.264.24.432.48m-4.368 4.992q0 .792.624 1.44.624.624 1.512.624c.888 0 1.08-.216 1.464-.648q.6-.648.6-1.416 0-.792-.576-1.464-.552-.672-1.512-.672-.936 0-1.536.672-.576.672-.576 1.464m21.748-6.192q1.416.624 1.416 1.512a1.8 1.8 0 0 1-.192.816 4 4 0 0 0-.192.408l-6.288 14.064q-.192.456-.336.696-.12.24-.408.456t-.72.216c-.432 0-.712-.12-1.272-.36q-1.416-.624-1.416-1.488 0-.576 2.304-5.496l-4.776-8.04q-.48-.792-.48-1.176 0-.768 1.296-1.536.816-.48 1.272-.48t.744.192.408.408q.144.192 1.32 2.232 1.2 2.016 2.28 3.768.12-.384 1.296-2.952a512 512 0 0 0 1.248-2.76 3 3 0 0 1 .288-.408q.312-.408.864-.408.576 0 1.344.336"/></mask><g filter="url(#a)"><path fill="#FEFDFE" d="M12.128 14.392h4.224q1.296.048 1.584.672.24.456.24 1.344v5.28q0 .768-.672 1.464-2.016 2.088-6.048 2.088-3.576 0-6.216-2.688Q2.6 19.84 2.6 16.024t2.688-6.36q2.688-2.568 6.336-2.568 2.832 0 5.352 1.872.648.48.648 1.08 0 .576-.552 1.344-.936 1.272-1.704 1.272-.456 0-1.464-.648-1.008-.672-2.4-.672-1.824 0-3.24 1.296Q6.848 13.912 6.848 16q0 2.064 1.44 3.528 1.44 1.44 3.264 1.44 1.32 0 2.376-.432V17.92h-1.896q-.744 0-1.056-.192a.9.9 0 0 1-.408-.552q-.096-.384-.096-1.008 0-.648.096-1.032.12-.384.408-.528.432-.216 1.152-.216m7.605 4.296q0-2.88 2.016-4.752t4.608-1.872 4.584 1.872q1.992 1.848 1.992 4.728 0 1.992-1.032 3.552-1.032 1.536-2.52 2.28-1.464.72-3.048.72c-1.584 0-2.08-.256-3.072-.768q-1.488-.792-2.52-2.304-1.008-1.536-1.008-3.456m5.016 1.728q.768.576 1.56.576c.792 0 1.056-.2 1.584-.6q.792-.6.792-1.776c0-1.176-.248-1.368-.744-1.752q-.744-.576-1.608-.576t-1.608.6-.744 1.776q0 1.152.768 1.752m9.374-1.728q0-2.88 2.016-4.752t4.608-1.872 4.584 1.872q1.992 1.848 1.992 4.728 0 1.992-1.032 3.552-1.032 1.536-2.52 2.28-1.464.72-3.048.72c-1.584 0-2.08-.256-3.072-.768q-1.488-.792-2.52-2.304-1.008-1.536-1.008-3.456m5.016 1.728q.768.576 1.56.576c.792 0 1.056-.2 1.584-.6q.792-.6.792-1.776c0-1.176-.248-1.368-.744-1.752q-.744-.576-1.608-.576t-1.608.6-.744 1.776q0 1.152.768 1.752m17.751 3q-.912 1.2-2.904 1.2t-3.744-1.824q-1.728-1.848-1.728-4.296t1.752-4.296 3.84-1.848q.816 0 1.488.312.672.288.912.552.264.24.408.456.072-.672.48-1.008.432-.36 1.368-.36t1.368.144.6.504q.192.336.216.6.048.264.048.816v9.936q0 2.76-1.92 4.44-1.92 1.704-4.32 1.704a7.26 7.26 0 0 1-3.48-.888q-1.656-.888-1.656-1.608 0-.936.72-1.656.456-.504.696-.696a1 1 0 0 1 .6-.192q.336 0 .696.288 1.152.888 2.496.888.912 0 1.488-.72t.576-1.728zm-4.272-4.896q0 .768.6 1.392.624.624 1.488.624.888 0 1.464-.624.576-.648.576-1.392 0-.768-.552-1.416-.552-.672-1.488-.672c-.936 0-1.128.216-1.512.648q-.576.648-.576 1.44M62.913 8.512q0-.552.024-.816.048-.288.216-.648.336-.648 1.872-.648 1.464 0 1.824.648.192.36.216.648.048.288.048.84v11.112q0 .864.144 1.104.144.216.624.216.504 0 .672.048.168.024.408.192.48.312.48 1.704 0 1.512-.48 1.848-.624.432-2.976.144-1.848-.24-2.4-1.224-.672-1.176-.672-3.744zm19.81 8.664q0 1.464-.745 2.184-.72.696-1.608.696h-5.688q0 .672.792 1.128t1.584.456q1.392 0 2.184-.288l.264-.096q.576-.264.96-.264.768 0 1.32 1.08.312.648.312 1.104 0 2.136-5.112 2.136-1.776 0-3.168-.6-1.368-.624-2.136-1.632-1.512-1.944-1.512-4.344 0-3.024 1.944-4.824 1.968-1.824 4.896-1.824 3.336 0 4.896 2.352.816 1.248.816 2.736Zm-5.065.696q.912 0 .912-.768a1.07 1.07 0 0 0-.432-.888q-.408-.336-1.2-.336-.768 0-1.536.648-.768.624-.768 1.344zm25.684-6.912q.624 1.272.624 2.832t-.624 2.832q-.624 1.248-1.608 1.992-1.992 1.536-4.128 1.536h-3v2.712q0 .552-.048.84-.024.264-.216.624-.336.648-1.872.648-1.68 0-1.968-.888-.144-.408-.144-1.248V9.52q0-.552.024-.816.048-.288.24-.648.336-.648 1.872-.648h5.136q2.112 0 4.104 1.536.984.744 1.608 2.016m-5.712 4.944q.72 0 1.416-.528t.696-1.584-.696-1.584q-.696-.552-1.44-.552h-3v4.248zm7.893-7.392q0-.552.024-.816.048-.288.216-.648.336-.648 1.872-.648 1.464 0 1.824.648.192.36.216.648.048.288.048.84v11.112q0 .864.144 1.104.144.216.624.216.504 0 .672.048.168.024.408.192.48.312.48 1.704 0 1.512-.48 1.848-.624.432-2.976.144-1.848-.24-2.4-1.224-.672-1.176-.672-3.744zm16.059 5.184q.144-1.344 1.896-1.344.936 0 1.392.144t.624.504q.192.36.216.648.048.264.048.816v8.4q0 .552-.048.84-.024.264-.192.624-.336.624-1.656.624-1.296 0-1.752-.312-.432-.336-.504-.96-.888 1.272-2.976 1.272-2.064 0-3.84-1.896t-1.776-4.392q0-2.52 1.776-4.392 1.8-1.896 3.936-1.896.816 0 1.488.288t.936.552q.264.24.432.48m-4.368 4.992q0 .792.624 1.44.624.624 1.512.624c.888 0 1.08-.216 1.464-.648q.6-.648.6-1.416 0-.792-.576-1.464-.552-.672-1.512-.672-.936 0-1.536.672-.576.672-.576 1.464m21.748-6.192q1.416.624 1.416 1.512a1.8 1.8 0 0 1-.192.816 4 4 0 0 0-.192.408l-6.288 14.064q-.192.456-.336.696-.12.24-.408.456t-.72.216c-.432 0-.712-.12-1.272-.36q-1.416-.624-1.416-1.488 0-.576 2.304-5.496l-4.776-8.04q-.48-.792-.48-1.176 0-.768 1.296-1.536.816-.48 1.272-.48t.744.192.408.408q.144.192 1.32 2.232 1.2 2.016 2.28 3.768.12-.384 1.296-2.952a512 512 0 0 0 1.248-2.76 3 3 0 0 1 .288-.408q.312-.408.864-.408.576 0 1.344.336"/></g><path fill="#48486C" d="m16.352 14.392.037-1h-.037zm1.584.672-.908.42.011.023.012.023zm-.432 8.088-.72-.695zm-12.264-.6-.717.698.004.003zm.048-12.888.687.726.004-.003zm11.688-.696-.596.803zm.096 2.424.806.593.006-.01zm-3.168.624-.555.832.007.005.007.004zm-5.64.624.668.744.007-.006zm.024 6.888-.713.701.006.006zm5.64 1.008.379.925.621-.254v-.671zm0-2.616h1v-1h-1zm-2.952-.192-.524.852zm-.408-.552-.97.243.002.007.002.008zm0-2.04-.954-.298-.01.027-.006.028zm.408-.528-.447-.894zm1.152.784h4.224v-2h-4.224zm4.187 0c.366.013.58.066.69.113.096.04.056.049.023-.022l1.816-.838c-.453-.981-1.549-1.219-2.455-1.252l-.074 1.998Zm.736.138c.048.091.125.346.125.878h2c0-.652-.083-1.293-.355-1.81zm.125.878v5.28h2v-5.28zm0 5.28c0 .19-.074.441-.391.77l1.438 1.389c.58-.6.953-1.325.953-2.159zm-.391.77c-1.092 1.13-2.804 1.782-5.329 1.782v2c2.851 0 5.171-.74 6.767-2.393l-1.438-1.39Zm-5.329 1.782c-2.1 0-3.92-.777-5.503-2.389l-1.426 1.402c1.936 1.972 4.261 2.987 6.929 2.987zm-5.5-2.385C4.38 20.235 3.6 18.31 3.6 16.024h-2c0 2.802.98 5.23 2.923 7.226zM3.6 16.024c0-2.279.79-4.133 2.375-5.634L4.601 8.938C2.602 10.829 1.6 13.215 1.6 16.024zm2.379-5.637c1.61-1.538 3.476-2.291 5.645-2.291v-2c-2.695 0-5.053.959-7.027 2.845zm5.645-2.291c1.65 0 3.228.54 4.756 1.675l1.192-1.606c-1.832-1.361-3.822-2.069-5.948-2.069zm4.757 1.676c.139.102.2.18.224.22.02.033.019.046.019.056h2c0-.819-.461-1.445-1.053-1.884zm.243.276c0 .079-.047.319-.364.76l1.624 1.168c.419-.583.74-1.239.74-1.928zm-.357.751c-.28.38-.51.614-.687.746-.177.131-.24.119-.212.119v2c.54 0 1.016-.224 1.408-.517.392-.292.756-.694 1.101-1.162zm-.899.865c.056 0 .01.011-.19-.076a6 6 0 0 1-.733-.413l-1.082 1.682c.36.232.698.423 1.006.56.29.128.64.247.999.247zm-.91-.48c-.86-.573-1.859-.84-2.954-.84v2c.76 0 1.361.181 1.845.504zm-2.954-.84c-1.48 0-2.797.535-3.915 1.558l1.35 1.476c.77-.705 1.613-1.034 2.565-1.034zm-3.908 1.552C6.419 12.953 5.848 14.355 5.848 16h2c0-1.139.373-1.977 1.084-2.616zM5.848 16c0 1.637.582 3.065 1.727 4.23l1.426-1.403c-.775-.788-1.153-1.712-1.153-2.827zm1.733 4.235c1.124 1.124 2.458 1.733 3.971 1.733v-2c-.919 0-1.76-.35-2.557-1.147zm3.971 1.733c.99 0 1.913-.162 2.755-.506l-.758-1.852c-.566.232-1.227.358-1.997.358zm3.376-1.432V17.92h-2v2.616zm-1-3.616h-1.896v2h1.896zm-1.896 0c-.21 0-.358-.014-.457-.032-.106-.02-.114-.036-.075-.012l-1.048 1.704c.46.282 1.054.34 1.58.34zm-.532-.044.005.005a.1.1 0 0 1 .029.038q.003.007 0 0l-1.932.515c.128.482.42.881.85 1.146zm.038.057c-.036-.144-.066-.39-.066-.765h-2c0 .457.034.883.126 1.25zm-.066-.765c0-.395.03-.647.066-.79l-1.94-.485c-.092.37-.126.806-.126 1.275zm.05-.734c.012-.037.017-.034 0-.01a.3.3 0 0 1-.098.079l-.895-1.79c-.493.247-.776.678-.915 1.125l1.909.596Zm-.099.068c.098-.049.31-.11.705-.11v-2c-.565 0-1.121.083-1.6.322zm10.326-1.566.68.733zm9.192 0-.685.729.005.004zm.96 8.28.83.558.004-.006zm-2.52 2.28.441.897.006-.003zm-6.12-.048-.47.883.011.006zm-2.52-2.304-.836.549.005.007.005.008zm4.008-1.728-.616.788.008.006.008.006zm3.144-.024-.604-.797zm.048-3.528-.612.79zm-3.216.024-.628-.778zm-3.992 1.8c0-1.657.566-2.97 1.696-4.02l-1.36-1.465c-1.559 1.447-2.336 3.302-2.336 5.485zm1.696-4.02c1.172-1.087 2.469-1.604 3.928-1.604v-2c-1.997 0-3.772.731-5.289 2.14l1.361 1.465Zm3.928-1.604c1.458 0 2.745.517 3.899 1.6l1.37-1.457c-1.503-1.412-3.272-2.143-5.27-2.143zm3.904 1.605c1.11 1.03 1.672 2.334 1.672 3.995h2c0-2.18-.767-4.028-2.312-5.461zm1.672 3.995c0 1.145-.294 2.135-.866 3l1.668 1.104c.803-1.215 1.198-2.593 1.198-4.104zm-.862 2.994c-.603.897-1.317 1.533-2.137 1.944l.894 1.788c1.163-.581 2.13-1.465 2.903-2.616zm-2.132 1.94a5.8 5.8 0 0 1-2.606.618v2c1.214 0 2.38-.277 3.49-.823l-.884-1.794Zm-2.606.618c-.887 0-1.755-.213-2.613-.657l-.918 1.778c1.126.58 2.306.879 3.53.879zm-2.602-.65c-.838-.446-1.56-1.1-2.164-1.986l-1.652 1.128c.771 1.13 1.73 2.012 2.876 2.623zm-2.154-1.97c-.56-.854-.844-1.814-.844-2.908h-2c0 1.466.388 2.81 1.172 4.005zm2.572-.38c.647.486 1.373.776 2.16.776v-2c-.27 0-.584-.094-.96-.376zm2.16.776c.796 0 1.53-.305 2.188-.803l-1.208-1.594c-.4.302-.72.397-.98.397zm2.188-.803c.825-.625 1.188-1.54 1.188-2.573h-2c0 .536-.165.804-.396.979zm1.188-2.573c0-1.008-.331-1.923-1.132-2.543l-1.224 1.582c.19.148.356.401.356.961zm-1.132-2.543c-.655-.507-1.402-.785-2.22-.785v2c.334 0 .658.106.996.367zm-2.22-.785c-.83 0-1.582.294-2.236.822l1.256 1.556c.338-.272.657-.378.98-.378zm-2.236.822c-.785.633-1.116 1.544-1.116 2.554h2c0-.558.165-.83.372-.998zm-1.116 2.554c0 1.013.352 1.915 1.152 2.54l1.232-1.576c-.224-.175-.384-.441-.384-.964zm13.158-4.728.68.733zm9.192 0-.684.729.004.004zm.96 8.28.83.558.005-.006zm-2.52 2.28.442.897.006-.003zm-6.12-.048-.47.883.012.006zm-2.52-2.304-.836.549.005.007.006.008zm4.008-1.728-.615.788.008.006.007.006zm3.144-.024-.603-.797zm.048-3.528-.612.79zm-3.216.024-.627-.778zm-3.992 1.8c0-1.657.567-2.97 1.697-4.02l-1.361-1.465c-1.558 1.447-2.336 3.302-2.336 5.485zm1.697-4.02c1.171-1.087 2.468-1.604 3.927-1.604v-2c-1.996 0-3.772.731-5.288 2.14l1.36 1.465Zm3.927-1.604c1.46 0 2.746.517 3.9 1.6l1.37-1.457c-1.503-1.412-3.272-2.143-5.27-2.143zm3.904 1.605c1.111 1.03 1.672 2.334 1.672 3.995h2c0-2.18-.766-4.028-2.311-5.461zm1.672 3.995c0 1.145-.293 2.135-.866 3l1.669 1.104c.803-1.215 1.197-2.593 1.197-4.104zm-.862 2.994c-.602.897-1.316 1.533-2.137 1.944l.895 1.788c1.163-.581 2.13-1.465 2.902-2.616zm-2.13 1.94a5.8 5.8 0 0 1-2.608.618v2c1.214 0 2.38-.277 3.49-.823L43.33 23.6Zm-2.608.618c-.887 0-1.754-.213-2.613-.657l-.917 1.778c1.125.58 2.306.879 3.53.879zm-2.602-.65c-.837-.446-1.559-1.1-2.164-1.986l-1.651 1.128c.77 1.13 1.729 2.012 2.876 2.623zm-2.154-1.97c-.56-.854-.844-1.814-.844-2.908h-2c0 1.466.389 2.81 1.172 4.005zm2.572-.38c.648.486 1.373.776 2.16.776v-2c-.268 0-.583-.094-.96-.376zm2.16.776c.797 0 1.531-.305 2.188-.803l-1.207-1.594c-.4.302-.72.397-.98.397v2Zm2.188-.803c.825-.625 1.188-1.54 1.188-2.573h-2c0 .536-.164.804-.395.979zm1.188-2.573c0-1.008-.33-1.923-1.131-2.543l-1.225 1.582c.191.148.356.401.356.961zm-1.131-2.543c-.655-.507-1.403-.785-2.22-.785v2c.334 0 .658.106.995.367zm-2.22-.785c-.83 0-1.583.294-2.236.822l1.255 1.556c.338-.272.657-.378.98-.378zm-2.236.822c-.785.633-1.117 1.544-1.117 2.554h2c0-.558.165-.83.372-.998zm-1.117 2.554c0 1.013.353 1.915 1.153 2.54l1.231-1.576c-.224-.175-.384-.441-.384-.964zm19.52 4.752h1v-2.968l-1.797 2.363zm-6.649-.624-.73.683.009.01zm.024-8.592.726.688zm5.328-1.536-.421.907.014.006.013.006zm.912.552-.74.673.032.035.035.032zm.408.456-.832.555 1.532 2.298.294-2.746zm.48-1.008.636.772.004-.004zm2.736-.216-.316.949zm.6.504-.906.423.017.037.02.036.87-.496Zm.216.6-.996.09.004.045.008.044zm-1.872 15.192-.658-.753-.006.005zm-7.8.816-.473.881zm-.936-3.264.707.707.018-.018.017-.018zm.696-.696-.588-.809-.019.014-.018.014zm1.296.096-.625.78.007.007.008.005zm3.984.168.78.625zm-3.096-5.952-.72.693.006.007.007.007zm2.952 0 .735.678.006-.007.006-.007zm.024-2.808-.773.635.006.007.006.007zm-.1 5.707c-.361.476-.983.805-2.108.805v2c1.532 0 2.846-.47 3.7-1.595zm-2.108.805c-.987 0-1.99-.441-3.023-1.517l-1.442 1.386c1.303 1.356 2.796 2.131 4.465 2.131zm-3.014-1.507c-.985-1.054-1.458-2.244-1.458-3.613h-2c0 1.895.679 3.569 1.998 4.979zm-1.458-3.613c0-1.365.478-2.553 1.478-3.608l-1.452-1.376c-1.336 1.41-2.026 3.085-2.026 4.984zm1.478-3.608c1.024-1.08 2.055-1.536 3.114-1.536v-2c-1.725 0-3.253.776-4.566 2.16zm3.114-1.536c.413 0 .764.078 1.067.219l.842-1.814a4.5 4.5 0 0 0-1.909-.405zm1.094.231q.292.127.44.219c.106.064.135.096.126.087l1.48-1.346c-.313-.344-.788-.597-1.258-.798zm.633.373c.137.124.212.215.249.27l1.664-1.109a3.5 3.5 0 0 0-.567-.64zm2.075-.178c.029-.263.104-.327.122-.342l-1.272-1.544c-.526.433-.77 1.041-.838 1.674zm.126-.346c.023-.018.195-.128.728-.128v-2c-.715 0-1.455.13-2.008.592zm.728-.128c.605 0 .925.05 1.052.093l.632-1.898c-.449-.15-1.041-.195-1.684-.195zm1.052.093.04.016q.007.005-.001-.001a.1.1 0 0 1-.03-.037l1.813-.846c-.245-.526-.683-.86-1.19-1.03zm.048.051q.059.108.077.16c.013.036.012.046.011.034l1.992-.18c-.034-.37-.175-.71-.344-1.006zm.1.283c.015.083.032.28.032.637h2a6 6 0 0 0-.064-.995zm.032.637v9.936h2v-9.936zm0 9.936c0 1.578-.535 2.774-1.578 3.687l1.317 1.506c1.516-1.327 2.261-3.091 2.261-5.193zm-1.584 3.692c-1.11.986-2.318 1.452-3.656 1.452v2c1.863 0 3.535-.67 4.984-1.956zm-3.656 1.452a6.26 6.26 0 0 1-3.007-.77l-.946 1.763a8.26 8.26 0 0 0 3.953 1.007zm-3.007-.77c-.515-.275-.837-.506-1.018-.681-.195-.19-.11-.2-.11-.045h-2c0 .635.36 1.133.716 1.48.372.36.877.693 1.466 1.01l.946-1.763Zm-1.129-.726c0-.334.116-.638.427-.949l-1.414-1.414c-.65.65-1.013 1.45-1.013 2.363zm.462-.985c.3-.332.486-.512.579-.586l-1.25-1.562c-.227.182-.505.466-.813.806zm.542-.558.003-.002zh.014v-2c-.429 0-.836.127-1.188.383zm.012-.001c-.034 0-.05-.008-.04-.004.012.005.05.023.111.073l1.25-1.562c-.352-.281-.798-.507-1.32-.507v2Zm.086.08c.927.715 1.97 1.096 3.106 1.096v-2c-.657 0-1.277-.211-1.885-.68zm3.106 1.096c.916 0 1.698-.381 2.269-1.095l-1.562-1.25c-.197.246-.407.345-.707.345zm2.269-1.095c.54-.675.795-1.477.795-2.353h-2c0 .468-.128.817-.357 1.103zm.795-2.353v-.72h-2v.72zm-6.272-5.616c0 .804.325 1.509.88 2.085l1.44-1.386c-.245-.256-.32-.479-.32-.699zm.893 2.1a3.03 3.03 0 0 0 2.195.916v-2c-.304 0-.548-.098-.78-.331zm2.195.916c.857 0 1.616-.314 2.199-.946l-1.47-1.356c-.185.2-.402.302-.729.302zm2.211-.96c.519-.583.83-1.275.83-2.056h-2c0 .211-.075.447-.324.728zm.83-2.056c0-.776-.288-1.473-.792-2.064l-1.522 1.297c.232.271.313.519.313.767zm-.78-2.05c-.574-.7-1.364-1.038-2.26-1.038v2c.35 0 .552.11.714.307zm-2.26-1.038c-.885 0-1.67.32-2.26.984l1.494 1.328c.178-.2.401-.312.765-.312zm-2.26.984c-.53.596-.829 1.307-.829 2.104h2c0-.26.085-.508.323-.776zm10.49-8.72-.986-.164-.006.036-.004.037zm.216-.648-.888-.46-.01.018-.008.02zm3.696 0 .882-.47-.004-.008-.004-.008zm.216.648-.996.083.003.04.007.041zm.192 13.056-.857.515.012.02.013.02zm1.296.264-.275.962.066.018.068.01zm.408.192-.573.82.014.01.014.008zm0 3.552.57.822.004-.003zm-2.976.144-.129.992h.008zm-2.4-1.224.872-.49-.004-.006zm.328-15.168c0-.363.008-.597.02-.725l-1.992-.182a11 11 0 0 0-.028.907zm.01-.652c.013-.077.05-.204.136-.39l-1.812-.845c-.138.295-.245.6-.296.907zm.118-.352c-.043.083-.083.054.075-.001.166-.057.454-.107.91-.107v-2c-.57 0-1.105.058-1.564.217-.466.161-.93.456-1.197.97zm.984-.108c.426 0 .697.049.853.104.147.052.127.085.097.03l1.748-.972c-.27-.487-.713-.778-1.175-.942-.452-.16-.973-.22-1.523-.22zm.942.119c.088.165.1.247.102.26l1.993-.166a2.7 2.7 0 0 0-.33-1.036zm.112.341c.018.11.034.324.034.676h2c0-.384-.016-.73-.061-1.004zm.034.676v11.112h2V8.536zm0 11.112c0 .31.013.594.044.837.028.212.084.517.243.782l1.715-1.03c.04.066.048.108.044.093a1 1 0 0 1-.018-.103 5 5 0 0 1-.028-.579zm.312 1.659c.394.59 1.075.661 1.456.661v-2c-.094 0-.106-.012-.069.001a.6.6 0 0 1 .277.228zm1.456.661a5 5 0 0 1 .426.017c.015.002.002.001-.029-.008l.55-1.922c-.268-.077-.631-.087-.947-.087zm.53.038-.076-.017-.022-.008.022.011.053.035 1.147-1.638c-.208-.146-.498-.314-.84-.363l-.283 1.98Zm.005.04c-.13-.084-.106-.157-.057.015.045.16.082.433.082.851h2c0-.51-.043-.985-.157-1.393-.112-.395-.329-.857-.778-1.15zm.025.866c0 .462-.038.774-.088.967-.055.213-.09.15.035.062l1.147 1.638c.444-.311.65-.795.754-1.198.11-.423.152-.923.152-1.469zm-.05 1.026c.035-.024-.076.053-.534.075-.416.02-.994-.009-1.75-.102l-.243 1.986c.811.099 1.514.142 2.09.114.533-.026 1.126-.117 1.576-.429zm-2.277-.026c-1.122-.145-1.522-.48-1.657-.721l-1.744.978c.6 1.072 1.801 1.552 3.143 1.727zm-1.66-.728c-.315-.55-.54-1.58-.54-3.248h-2c0 1.756.221 3.222.803 4.24zm-.54-3.248V8.512h-2v11.424zm18.064-.576.695.719zm-7.296.696v-1h-1v1zm.792 1.128.5-.867zm3.768.168-.341-.94zm.264-.096.342.94.038-.014.037-.017zm2.28.816.901-.434-.005-.01-.005-.011-.89.455Zm-7.968 2.64-.415.91.01.004.01.004zm-2.136-1.632.796-.606-.006-.008zm.432-9.168.68.734zm9.792.528.837-.547-.003-.006zm-3.768 1.776-.635.772.01.009.011.008zm-2.736.312.63.776.008-.006.007-.006zm-.768 1.344h-1v1h1zm7.088-.696c0 .82-.207 1.24-.44 1.465l1.392 1.438c.76-.736 1.048-1.77 1.048-2.903zm-.439 1.465c-.32.309-.614.415-.913.415v2c.885 0 1.663-.358 2.303-.977zm-.913.415h-5.688v2h5.688zm-6.688 1c0 .93.581 1.585 1.293 1.995l.998-1.734c-.177-.101-.249-.181-.274-.218-.017-.024-.017-.03-.017-.043zm1.293 1.995c.657.377 1.355.589 2.083.589v-2c-.327 0-.685-.092-1.085-.323zm2.083.589c.98 0 1.84-.099 2.526-.348l-.683-1.88c-.37.135-.965.228-1.843.228zm2.526-.348.264-.096-.683-1.88-.264.096zm.339-.127c.328-.15.495-.173.543-.173v-2c-.463 0-.936.153-1.376.355zm.543-.173.017.003a.2.2 0 0 1 .064.041c.078.064.203.206.349.491l1.78-.91c-.43-.844-1.133-1.625-2.21-1.625zm.42.514c.176.366.212.578.212.67h2c0-.516-.171-1.04-.41-1.538zm.212.67c0 .14-.035.229-.1.31-.079.098-.24.234-.563.37-.667.278-1.784.456-3.449.456v2c1.744 0 3.182-.178 4.22-.611.529-.221 1.006-.53 1.355-.967.36-.452.537-.986.537-1.558zm-4.112 1.136c-1.07 0-1.988-.18-2.772-.518l-.791 1.836c1.072.463 2.266.682 3.563.682zm-2.753-.51c-.79-.36-1.36-.81-1.755-1.328l-1.591 1.212c.629.826 1.482 1.464 2.516 1.936zm-1.761-1.336c-.876-1.125-1.302-2.359-1.302-3.73h-2c0 1.829.582 3.491 1.723 4.958zm-1.302-3.73c0-1.78.562-3.107 1.624-4.09l-1.36-1.468c-1.53 1.417-2.264 3.307-2.264 5.558zm1.624-4.09c1.11-1.029 2.491-1.558 4.216-1.558v-2c-2.179 0-4.061.687-5.576 2.09zm4.216-1.558c1.96 0 3.244.67 4.063 1.905l1.667-1.106c-1.261-1.901-3.241-2.799-5.73-2.799zm4.06 1.9c.437.669.652 1.39.652 2.188h2a5.9 5.9 0 0 0-.979-3.283zm-3.412 3.884c.42 0 .922-.085 1.328-.427.44-.37.584-.881.584-1.341h-2c0 .031-.004.014.014-.032a.4.4 0 0 1 .114-.157c.052-.044.092-.055.09-.054a.5.5 0 0 1-.13.011zm1.912-1.768c0-.674-.284-1.262-.818-1.677l-1.228 1.578q.029.023.034.032l.004.005.001.002v.002a.2.2 0 0 1 .006.058zm-.796-1.66c-.521-.43-1.187-.564-1.836-.564v2c.408 0 .542.09.565.108zm-1.836-.564c-.812 0-1.545.347-2.18.884l1.29 1.528c.387-.327.679-.412.89-.412zm-2.166.872c-.654.53-1.138 1.237-1.138 2.12h2c0-.077.028-.267.399-.568zm-.138 3.12h3.024v-2h-3.024zm28.708-7.912.898-.44zm0 5.664.895.447.003-.007zm-1.608 1.992-.603-.798-.007.006zm-7.128 1.536v-1h-1v1zm-.048 3.552-.986-.164-.006.036-.004.037zm-.216.624-.882-.47-.005.01zm-3.84-.24.952-.309-.004-.012-.005-.012zm-.12-15.384-.986-.164-.006.036-.004.037zm.24-.648.883.47.005-.01zm11.112.888-.61.792.007.006zm-2.688 6.432-.604-.797zm0-3.168-.621.784.008.006.01.007zm-4.44-.552v-1h-1v1zm0 4.248h-1v1h1zm7.839-4.504c.342.698.521 1.489.521 2.392h2c0-1.177-.236-2.274-.726-3.272zm.521 2.392c0 .903-.179 1.694-.521 2.392l1.795.88c.49-.998.726-2.095.726-3.272zm-.518 2.385c-.356.712-.799 1.25-1.317 1.641l1.207 1.596c.794-.6 1.423-1.391 1.899-2.343zm-1.324 1.647c-1.185.914-2.352 1.328-3.518 1.328v2c1.683 0 3.268-.61 4.739-1.744zm-3.518 1.328h-3v2h3zm-4 1v2.712h2v-2.712zm0 2.712c0 .352-.016.566-.034.676l1.973.328c.046-.274.061-.62.061-1.004zm-.043.75c0-.01 0 .006-.016.05a1.4 1.4 0 0 1-.087.193l1.765.942c.16-.301.297-.643.33-1.005l-1.993-.18Zm-.108.254c.042-.083.082-.054-.076.001-.165.057-.454.107-.909.107v2c.57 0 1.105-.058 1.564-.217.466-.161.93-.456 1.196-.97zm-.985.108c-.489 0-.773-.067-.92-.133a.3.3 0 0 1-.093-.057l-.003-.007-1.903.617c.415 1.278 1.748 1.58 2.92 1.58zm-1.025-.22c-.037-.107-.087-.384-.087-.916h-2c0 .587.047 1.143.201 1.58zm-.087-.916V9.52h-2v13.32zm0-13.32c0-.363.009-.597.02-.725l-1.992-.182a11 11 0 0 0-.028.907zm.01-.652c.01-.051.041-.162.137-.341l-1.765-.942c-.16.301-.289.622-.344.955zm.142-.352c-.043.083-.082.054.075-.001.166-.057.454-.107.91-.107v-2c-.57 0-1.105.058-1.564.217-.466.161-.93.456-1.196.97zm.984-.108h5.136v-2h-5.136zm5.136 0c1.148 0 2.306.412 3.494 1.328l1.221-1.584c-1.468-1.132-3.046-1.744-4.715-1.744zm3.501 1.334c.514.388.956.93 1.314 1.658l1.795-.88c-.474-.968-1.104-1.77-1.902-2.374zm-3.5 7.162c.741 0 1.42-.276 2.02-.731l-1.209-1.594c-.328.25-.593.325-.812.325v2Zm2.02-.731c.766-.582 1.091-1.437 1.091-2.381h-2c0 .464-.138.665-.3.787zm1.091-2.381c0-.944-.325-1.8-1.091-2.38l-1.209 1.593c.162.122.3.323.3.787zm-1.074-2.367c-.605-.48-1.298-.769-2.062-.769v2c.23 0 .496.08.819.335zm-2.062-.769h-3v2h3zm-4 1v4.248h2v-4.248zm1 5.248h3.024v-2h-3.024zm10.941-9.208-.987-.164-.006.036-.003.037zm.216-.648-.888-.46-.01.018-.009.02zm3.696 0 .882-.47-.004-.008-.004-.008zm.216.648-.997.083.003.04.007.041zm.192 13.056-.858.515.012.02.013.02zm1.296.264-.275.962.065.018.068.01zm.408.192-.574.82.014.01.015.008zm0 3.552.569.822.004-.003zm-2.976.144-.129.992h.007zm-2.4-1.224.872-.49-.004-.006zm.328-15.168c0-.363.008-.597.019-.725l-1.991-.182a11 11 0 0 0-.028.907zm.01-.652c.013-.077.049-.204.136-.39l-1.813-.845c-.137.295-.245.6-.296.907zm.117-.352c-.042.083-.082.054.076-.001.165-.057.453-.107.909-.107v-2c-.569 0-1.105.058-1.564.217-.466.161-.93.456-1.196.97zm.985-.108c.426 0 .696.049.853.104.146.052.127.085.096.03l1.749-.972c-.271-.487-.714-.778-1.176-.942-.451-.16-.973-.22-1.522-.22zm.941.119a.8.8 0 0 1 .102.26l1.993-.166a2.7 2.7 0 0 0-.33-1.036zm.112.341c.018.11.035.324.035.676h2c0-.384-.016-.73-.062-1.004zm.035.676v11.112h2V8.536zm0 11.112c0 .31.012.594.044.837.028.212.083.517.242.782l1.715-1.03c.039.066.048.108.044.093q-.005-.013-.018-.103a5 5 0 0 1-.027-.579zm.311 1.659c.394.59 1.076.661 1.457.661v-2c-.095 0-.107-.012-.069.001a.6.6 0 0 1 .277.228zm1.457.661a5 5 0 0 1 .425.017c.015.002.002.001-.028-.008l.549-1.922c-.268-.077-.631-.087-.946-.087zm.53.038-.077-.017-.021-.008.021.011.053.035 1.147-1.638c-.208-.146-.498-.314-.84-.363zm.005.04c-.13-.084-.107-.157-.058.015.045.16.083.433.083.851h2c0-.51-.043-.985-.158-1.393-.111-.395-.328-.857-.778-1.15zm.025.866c0 .462-.038.774-.088.967-.056.213-.091.15.034.062l1.147 1.638c.445-.311.65-.795.754-1.198.11-.423.153-.923.153-1.469zm-.05 1.026c.034-.024-.077.053-.535.075-.416.02-.994-.009-1.75-.102l-.243 1.986c.812.099 1.514.142 2.09.114.534-.026 1.127-.117 1.577-.429zm-2.278-.026c-1.122-.145-1.521-.48-1.656-.721l-1.745.978c.601 1.072 1.802 1.552 3.144 1.727zm-1.66-.728c-.315-.55-.54-1.58-.54-3.248h-2c0 1.756.222 3.222.803 4.24zm-.54-3.248V8.512h-2v11.424zm15.059-6.24-.819.574 1.529 2.184.284-2.652zm3.288-1.2.301-.954zm.624.504-.906.423.011.024.013.024zm.216.648-.996.083.004.048.008.048zm0 10.056-.986-.164-.006.036-.004.037zm-.192.624.881.474.013-.025.012-.026zm-3.408.312-.614.79.024.018.025.017zm-.504-.96.993-.115-.302-2.622-1.511 2.165zm-6.816-.624-.73.684zm0-8.784-.725-.688zm5.424-1.608-.394.92zm.936.552-.707.707.017.017.017.016zm-3.312 6.912-.72.694.006.006.007.007zm2.976-.024-.734-.68-.007.008-.006.008zm.024-2.88-.773.635.007.008.007.008zm-3.048 0-.746-.666-.007.008-.006.007zm4.786-3.421c.023-.215.087-.269.13-.3.081-.057.296-.151.772-.151v-2c-.692 0-1.377.13-1.928.52-.589.418-.889 1.036-.962 1.717l1.988.213Zm.902-.451c.6 0 .938.05 1.091.098l.602-1.908c-.455-.143-1.045-.19-1.693-.19zm1.091.098c.055.017.067.03.057.022l-.021-.021a.1.1 0 0 1-.017-.028l1.812-.846c-.254-.545-.717-.873-1.229-1.035zm.043.02c.088.166.1.248.102.261l1.993-.166a2.7 2.7 0 0 0-.331-1.036zm.114.357c.015.083.032.28.032.637h2c0-.38-.015-.726-.064-.995zm.032.637v8.4h2v-8.4zm0 8.4c0 .352-.016.566-.034.676l1.972.328a6.4 6.4 0 0 0 .062-1.004zm-.044.75a1 1 0 0 1-.102.291l1.812.846c.139-.298.252-.623.282-.957zm-.076.24c.028-.054.054-.034-.055.006-.122.046-.348.092-.721.092v2c.932 0 2.027-.204 2.537-1.15zm-.776.098c-.397 0-.696-.024-.911-.063-.227-.04-.291-.085-.276-.074l-1.13 1.65c.319.219.699.33 1.056.393.369.066.794.094 1.261.094zm-1.138-.101c-.044-.035-.102-.093-.125-.286l-1.986.23c.073.64.351 1.22.883 1.634zm-1.938-.743c-.344.492-.967.844-2.156.844v2c1.595 0 2.956-.496 3.796-1.7zm-2.156.844c-1.031 0-2.063-.462-3.11-1.58l-1.46 1.368c1.321 1.41 2.85 2.212 4.57 2.212zm-3.11-1.58c-1.018-1.087-1.506-2.31-1.506-3.708h-2c0 1.93.696 3.635 2.046 5.076zm-1.506-3.708c0-1.417.489-2.637 1.502-3.704l-1.451-1.376c-1.356 1.429-2.051 3.137-2.051 5.08zm1.501-3.704c1.057-1.112 2.121-1.584 3.211-1.584v-2c-1.758 0-3.318.792-4.661 2.208zm3.211-1.584c.424 0 .784.074 1.094.207l.788-1.838a4.7 4.7 0 0 0-1.882-.369zm1.094.207c.421.18.587.304.623.34l1.414-1.414c-.316-.316-.774-.56-1.249-.764zm.657.373c.133.12.224.226.286.314l1.638-1.147a4 4 0 0 0-.578-.647zm-4.263 4.732c0 .822.335 1.543.904 2.134l1.44-1.388c-.263-.273-.344-.512-.344-.746zm.917 2.147a3.06 3.06 0 0 0 2.219.917v-2c-.329 0-.578-.104-.805-.331zm2.219.917c.87 0 1.633-.332 2.211-.984l-1.494-1.328c-.189.212-.403.312-.717.312zm2.198-.969c.543-.587.866-1.293.866-2.095h-2c0 .222-.077.46-.334.737zm.866-2.095c0-.795-.297-1.508-.817-2.115l-1.518 1.302c.248.29.335.552.335.813zm-.803-2.099c-.579-.705-1.381-1.037-2.285-1.037v2c.376 0 .583.116.739.307zm-2.285-1.037c-.896 0-1.684.336-2.282 1.006l1.492 1.332c.202-.226.438-.338.79-.338zm-2.295 1.021c-.52.607-.817 1.32-.817 2.115h2c0-.26.087-.524.335-.813zm21.931-4.077.403-.915-.002-.001zm1.032 2.736.913.408.087-.195v-.213zm-6.288 14.064-.913-.408-.004.01-.004.01zm-.336.696-.857-.515-.02.033-.017.035zm-.408.456-.6-.8zm-1.992-.144-.403.915.009.004zm.888-6.984.906.424.224-.48-.27-.455zm-4.776-8.04.86-.51-.005-.008zm.816-2.712-.507-.862-.003.002zm2.016-.288.555-.832zm.408.408-.874.486.033.06.041.054zm1.32 2.232-.866.5.007.011zm2.28 3.768-.851.525 1.151 1.867.655-2.094zm1.296-2.952.909.416.002-.003zm1.248-2.76-.868-.496-.028.05-.023.052zm.288-.408.781.625.007-.009.007-.009zm1.805.843c.404.178.625.341.735.459.094.1.084.138.084.138h2c0-1.228-.993-1.978-2.013-2.427zm.819.597a.8.8 0 0 1-.086.369l1.789.894c.197-.396.297-.82.297-1.263zm-.086.369-.155.315a3 3 0 0 0-.084.2l-.026.086c-.005.019-.033.121-.033.254h2q0 .06-.005.1-.004.039-.009.066a1 1 0 0 1-.038.15l-.01.028-.004.01.019-.042q.04-.085.134-.273zm-.211.447-6.288 14.064 1.826.816 6.288-14.064zm-6.296 14.084c-.122.288-.212.47-.272.57l1.715 1.028a7 7 0 0 0 .4-.822zm-.309.637c.009-.018-.006.022-.114.103l1.2 1.6c.276-.207.534-.47.703-.809zm-.114.103-.011.004a.4.4 0 0 1-.109.012v2c.46 0 .923-.118 1.32-.416zm-.12.016c-.07 0-.334-.046-.878-.28l-.788 1.84c.577.246 1.161.44 1.666.44zm-.869-.275c-.406-.18-.63-.342-.74-.458a.4.4 0 0 1-.075-.101c-.004-.01-.004-.011-.004-.014h-2c0 1.221 1.008 1.96 2.013 2.403zm-.819-.573c0 .084-.015.114.005.037q.02-.084.084-.269c.086-.248.221-.593.409-1.043.377-.898.946-2.161 1.712-3.797l-1.811-.848a111 111 0 0 0-1.745 3.871 21 21 0 0 0-.455 1.162 5 5 0 0 0-.131.426c-.029.11-.068.282-.068.461zm2.164-6.007-4.776-8.04-1.72 1.022 4.776 8.04zm-4.781-8.047a4 4 0 0 1-.289-.55c-.059-.144-.046-.167-.046-.108h-2c0 .315.093.616.194.864.107.261.255.54.431.83zm-.335-.658c0 .045-.023.009.088-.123.118-.14.339-.328.718-.553l-1.02-1.72c-.889.527-1.786 1.297-1.786 2.396zm.803-.674c.241-.141.43-.233.572-.286.149-.057.206-.056.193-.056v-2c-.59 0-1.214.286-1.779.618zm.765-.342c.168 0 .206.035.189.024l1.11-1.664c-.401-.267-.859-.36-1.299-.36zm.189.024q.076.052.094.073c.013.013.007.01-.005-.011l1.748-.972a2.2 2.2 0 0 0-.727-.754zm.163.176c-.009-.012.013.018.085.135a168 168 0 0 1 1.169 1.996l1.733-.998q-.59-1.022-.924-1.588a11 11 0 0 0-.463-.745zm1.261 2.143a283 283 0 0 0 2.288 3.782l1.702-1.05a298 298 0 0 1-2.272-3.755l-1.718 1.024Zm4.094 3.555.006-.018.019-.052.07-.175q.09-.217.25-.581.319-.726.905-2.008l-1.818-.832q-.59 1.286-.918 2.036c-.208.473-.363.84-.423 1.034zm1.252-2.837a472 472 0 0 0 1.256-2.78l-1.838-.787c-.042.1-.451 1.003-1.239 2.74zm1.205-2.677c.028-.049.089-.14.201-.28l-1.562-1.249c-.144.18-.275.362-.375.537zm.215-.297.011-.013-.007.004q-.005.002.007-.001a.3.3 0 0 1 .058-.005v-2c-.652 0-1.245.26-1.658.8zm.069-.015c.198 0 .505.06.943.252l.802-1.832c-.586-.256-1.175-.42-1.745-.42z" mask="url(#b)"/><defs><filter id="a" width="137.778" height="26.264" x="2.6" y="4.4" color-interpolation-filters="sRGB" filterUnits="userSpaceOnUse"><feFlood flood-opacity="0" result="BackgroundImageFix"/><feBlend in="SourceGraphic" in2="BackgroundImageFix" result="shape"/><feColorMatrix in="SourceAlpha" result="hardAlpha" values="0 0 0 0 0 0 0 0 0 0 0 0 0 0 0 0 0 0 127 0"/><feOffset dy="-2"/><feGaussianBlur stdDeviation="1"/><feComposite in2="hardAlpha" k2="-1" k3="1" operator="arithmetic"/><feColorMatrix values="0 0 0 0 0.462745 0 0 0 0 0.364706 0 0 0 0 0.560784 0 0 0 1 0"/><feBlend in2="shape" result="effect1_innerShadow_2125_299"/></filter></defs></svg>